<svg width="100" height="100" viewBox="0 0 100 100" fill="none" xmlns="http://www.w3.org/2000/svg">
<g clip-path="url(#clip0_751_8005)">
<path d="M48.2937 7.00383C53.6984 7.1593 58.5797 10.332 60.9187 15.2417L70.2004 34.7667L70.3496 34.3894C70.7182 33.4162 71.0204 32.4191 71.2539 31.405L71.3836 30.8003C72.9476 22.98 80.5488 17.9187 88.3836 19.4659C90.2444 19.8377 92.0138 20.5724 93.5907 21.6281C95.1675 22.6838 96.5209 24.0399 97.5736 25.6188C98.6262 27.1977 99.3574 28.9685 99.7255 30.8301C100.094 32.6917 100.091 34.6076 99.7187 36.4683C97.634 46.8792 92.2597 56.5413 84.5511 64.196L84.307 64.4331L87.5609 71.2745C91.3375 79.2159 87.4246 88.8148 79.2015 91.5085L78.8304 91.6245L78.5472 91.7101C77.2891 92.0643 75.9883 92.2448 74.6812 92.2464C71.9487 92.2466 69.272 91.4723 66.9615 90.0134C64.6509 88.5545 62.8012 86.4707 61.6265 84.0034L59.1148 78.723L58.4812 78.88C55.0859 79.6823 51.6422 80.1269 48.1968 80.1952L47.2574 80.2046C43.9418 80.2046 40.5715 79.8191 37.2043 79.0718L36.5402 78.9171L34.1273 83.9902C32.5004 87.4109 29.5947 90.0556 26.0363 91.3542L25.6066 91.5034C23.7533 92.1146 21.7953 92.3437 19.851 92.1769C17.9066 92.0101 16.0163 91.451 14.2941 90.5331C7.43474 86.887 4.81911 78.3511 8.16599 71.3007L11.1621 65.0003L10.9004 64.7464C6.79294 60.6945 3.53669 56.089 1.37653 51.1382L1.08864 50.4613L1.04724 50.3515C-1.92581 42.9593 1.6445 34.5448 9.032 31.5538C14.8265 29.2081 21.25 30.8925 25.2 35.2952L25.2742 35.3804L34.8234 15.2937C35.9555 12.8742 37.7383 10.8173 39.9726 9.3532C42.2068 7.88905 44.8043 7.07533 47.4746 7.00305L47.8789 6.99915L48.2937 7.00383Z" fill="white"/>
<path d="M34.0305 73.423L42.5836 55.4277C36.0508 54.0402 29.4777 49.9991 25.7602 45.0831L16.8164 63.8859C21.7863 68.1019 27.7535 71.4159 34.0305 73.423Z" fill="#1A007F"/>
<path d="M69.7246 44.5441C65.4277 49.8109 59.4609 53.7171 53.0762 55.239L61.6023 73.1804C67.8254 71.0788 73.6441 67.6847 78.6687 63.3343L69.7246 44.5441Z" fill="#4E000A"/>
<path d="M16.8164 63.8863L12.3445 73.2882C10.0679 78.0698 11.7785 83.9562 16.466 86.448C21.4363 89.0878 27.5515 87.0273 29.9492 82.0027L34.0304 73.423C27.728 71.391 21.8813 68.1521 16.8164 63.8863Z" fill="#1A007F"/>
<path d="M87.4773 24.0168C86.2126 23.7636 84.9104 23.762 83.6451 24.0121C82.3798 24.2623 81.1761 24.7593 80.1029 25.4748C79.0297 26.1902 78.108 27.1101 77.3904 28.1819C76.6728 29.2536 76.1734 30.4563 75.9207 31.7211C74.9777 36.4359 72.7688 40.8266 69.7246 44.5578L78.6551 63.3613C86.8984 56.209 92.9863 46.4707 95.1688 35.5734C96.2328 30.2394 92.7844 25.0672 87.4773 24.0168Z" fill="#FF9396"/>
<path d="M53.0762 55.239C51.1637 55.6968 49.2106 55.9393 47.2574 55.9393C45.7356 55.9393 44.1598 55.7643 42.5836 55.4276C36.0508 54.0401 29.4778 49.9991 25.7602 45.0831C24.8305 43.8573 24.0766 42.5776 23.5512 41.271C21.5172 36.2468 15.7926 33.8225 10.7684 35.8429C5.74416 37.8768 3.32033 43.6015 5.34025 48.6253C7.64338 54.3362 11.7113 59.5761 16.8164 63.8862C21.8764 68.1516 27.7186 71.3908 34.0168 73.4229C38.3406 74.81 42.8258 75.578 47.2442 75.578C52.1469 75.578 56.9824 74.7292 61.5891 73.1804L53.0762 55.239Z" fill="#002DC8"/>
<path d="M83.3691 73.2476L78.6551 63.3343L69.7246 44.544L69.7113 44.5577C69.7113 44.5577 69.7113 44.544 69.7246 44.544L56.7402 17.2276C55.9431 15.5517 54.6875 14.136 53.1189 13.1443C51.5502 12.1527 49.7328 11.6257 47.877 11.6245C44.0918 11.6245 40.6437 13.8065 39.0141 17.228L25.7734 45.0831C29.491 49.9991 36.0641 54.0401 42.5969 55.4276L46.8801 46.43C47.2844 45.5812 48.4965 45.5812 48.9008 46.43L53.0898 55.239H53.1168H53.0895L61.616 73.1804L65.8051 81.9894C66.6015 83.6685 67.8587 85.0867 69.4302 86.0788C71.0017 87.0709 72.8228 87.596 74.6813 87.5929C75.557 87.5929 76.4324 87.4718 77.2945 87.2292C83.2078 85.5991 86.0094 78.7972 83.3691 73.2476Z" fill="#FF536A"/>
</g>
<defs>
<clipPath id="clip0_751_8005">
<rect width="100" height="85.5469" fill="white" transform="translate(0 6.99915)"/>
</clipPath>
</defs>
</svg>
